<?xml version="1.0" encoding="UTF-8"?>
<svg id="_图层_1" data-name="图层 1" xmlns="http://www.w3.org/2000/svg" viewBox="0 0 138.51 153.06">
  <defs>
    <style>
      .cls-1 {
        fill: #231815;
      }
    </style>
  </defs>
  <path class="cls-1" d="M110.06,133.98l-9.59-20.07-6.18-12.76h-.44l-6.18,12.76-9.7,20.07h-8.71l20.84-40.83h7.94l20.84,40.83h-8.82Z"/>
  <path class="cls-1" d="M77.21,94.69h-7.94v.03c6.64,13.6,13.3,27.2,19.96,40.8h8.82l-20.84-40.83Z"/>
  <path class="cls-1" d="M60.43,133.98l-9.59-20.07-6.18-12.76h-.44l-6.18,12.76-9.7,20.07h-8.71l20.84-40.83h7.94l20.84,40.83h-8.82Z"/>
  <path class="cls-1" d="M85.25,88.02l-9.59-20.07-6.18-12.76h-.44l-6.18,12.76-9.7,20.07h-8.71l20.84-40.83h7.94l20.84,40.83h-8.82Z"/>
  <path class="cls-1" d="M85.25,17.55l-9.59,13.73-6.18,8.73h-.44l-6.18-8.73-9.7-13.73h-8.71l20.84,27.92h7.94l20.84-27.92h-8.82Z"/>
</svg>